<?xml version="1.0" standalone="no"?>
<!DOCTYPE svg PUBLIC "-//W3C//DTD SVG 20010904//EN"
 "http://www.w3.org/TR/2001/REC-SVG-20010904/DTD/svg10.dtd">
<svg version="1.0" xmlns="http://www.w3.org/2000/svg"
 width="1500.000000pt" height="1755.000000pt" viewBox="0 0 1500.000000 1755.000000"
 preserveAspectRatio="xMidYMid meet">

<g transform="translate(0.000000,1755.000000) scale(0.100000,-0.100000)"
fill="#000000" stroke="none">
<path d="M7795 16953 c-249 -53 -487 -243 -601 -479 -57 -118 -84 -245 -84
-390 0 -262 80 -457 259 -634 170 -169 370 -250 613 -250 264 0 457 79 639
260 190 189 268 391 256 660 -11 244 -91 423 -264 595 -122 121 -278 206 -443
241 -85 18 -286 16 -375 -3z"/>
<path d="M5200 13835 c-142 -27 -255 -65 -384 -129 l-128 -64 -131 44 c-313
105 -631 154 -1002 154 -731 0 -1329 -190 -1870 -594 -138 -103 -425 -384
-527 -517 -447 -578 -662 -1293 -645 -2144 5 -272 16 -374 63 -583 63 -287
182 -546 363 -792 79 -108 309 -334 430 -424 195 -144 354 -228 574 -301 148
-49 292 -81 415 -91 45 -4 82 -8 82 -10 0 -2 -76 -79 -168 -171 -261 -261
-415 -468 -543 -728 -156 -319 -217 -603 -206 -959 13 -428 126 -726 364 -957
107 -104 229 -187 400 -273 242 -121 441 -173 699 -183 514 -20 1008 133 1359
419 164 134 323 314 436 493 170 271 318 675 373 1025 19 117 106 771 141
1055 14 116 48 377 75 580 27 204 65 501 85 660 20 160 40 293 43 296 4 4 61
46 127 94 327 240 525 394 783 608 79 66 145 118 147 116 2 -3 -10 -114 -28
-249 -26 -211 -31 -279 -31 -485 -1 -192 3 -257 17 -327 75 -370 285 -674 577
-836 125 -70 335 -138 500 -162 201 -29 514 -29 690 -1 263 43 535 162 755
331 44 33 83 60 87 60 5 0 7 -15 4 -32 -3 -18 -33 -269 -66 -558 -33 -289 -87
-754 -120 -1035 -33 -280 -69 -593 -80 -695 -23 -202 -117 -1005 -124 -1057
l-5 -33 732 0 732 0 69 588 c37 323 95 814 128 1092 32 278 76 660 98 850 22
190 45 392 52 448 l12 104 30 -5 c17 -3 84 -15 148 -26 207 -36 336 -44 638
-38 307 6 442 19 681 67 452 91 819 239 1149 464 517 353 875 836 1081 1456
90 275 134 473 181 820 18 136 22 213 23 440 0 308 -12 408 -81 658 -166 607
-658 1191 -1192 1416 -223 94 -385 126 -662 133 -486 12 -902 -86 -1253 -295
-59 -36 -109 -63 -111 -61 -2 2 -16 28 -31 56 -77 145 -227 232 -480 279 -83
16 -146 19 -365 19 -279 -1 -357 -9 -527 -55 -79 -21 -83 -24 -88 -54 -2 -17
-34 -292 -70 -611 -36 -319 -90 -796 -121 -1060 -30 -264 -73 -637 -94 -830
-94 -836 -119 -1024 -141 -1068 -43 -83 -158 -274 -214 -352 -203 -283 -429
-419 -669 -402 -228 16 -335 108 -372 318 -27 157 -16 402 25 556 6 21 27 169
46 328 20 160 60 479 90 710 108 833 167 1286 210 1625 24 190 58 448 75 574
16 126 29 230 28 231 -7 6 -182 45 -253 57 -46 7 -164 12 -280 12 -162 0 -224
-4 -325 -22 -237 -42 -451 -122 -572 -212 -70 -53 -145 -138 -153 -174 -4 -19
-52 -424 -179 -1514 l-43 -374 -129 -130 c-213 -214 -472 -444 -764 -677 -105
-84 -166 -126 -168 -117 -2 7 15 153 37 322 22 170 48 368 56 439 9 72 36 283
60 470 25 187 69 536 100 775 94 742 134 1063 140 1107 l6 41 -64 21 c-137 46
-252 62 -472 66 -155 3 -230 1 -285 -10z m-1270 -876 c115 -18 388 -93 427
-117 9 -6 -4 -146 -52 -552 -99 -850 -195 -1686 -206 -1790 -21 -194 -194
-544 -374 -753 -127 -149 -328 -275 -500 -314 -104 -24 -321 -24 -416 -1 -219
55 -396 184 -531 388 -172 260 -232 577 -194 1020 68 784 251 1316 581 1685
207 232 501 387 820 434 86 12 368 13 445 0z m8315 -164 c121 -35 208 -83 293
-161 117 -107 210 -261 281 -467 81 -234 107 -432 97 -727 -17 -502 -111 -911
-289 -1265 -251 -502 -603 -764 -1049 -782 -151 -7 -259 7 -383 48 -218 73
-370 223 -420 415 -25 98 -18 224 35 619 28 204 70 523 95 710 25 187 60 449
79 582 l34 242 61 128 c195 403 445 622 779 683 90 17 288 4 387 -25z m-8375
-4214 c0 -15 -86 -789 -134 -1201 -24 -212 -47 -414 -51 -450 -39 -370 -188
-637 -415 -749 -137 -67 -315 -89 -444 -56 -145 38 -297 155 -369 285 -61 110
-81 202 -80 365 1 198 36 345 133 550 186 394 628 823 1228 1192 119 74 132
80 132 64z"/>
</g>
</svg>
